<?xml version="1.0" encoding="UTF-8"?>
<svg id="Vrstva_1" data-name="Vrstva 1" xmlns="http://www.w3.org/2000/svg" viewBox="0 0 518.96 161.77">
  <defs>
    <style>
      .cls-1 {
        fill: #1d1e1b;
      }
    </style>
  </defs>
  <path class="cls-1" d="M228.75,94.51c0,4.74,1.67,8.52,4.98,11.39,3.31,2.87,7.72,4.32,13.16,4.32,5.96,0,10.94-2.02,14.95-6.03,4-4.01,5.99-9.03,5.99-15.05,0-4.58-1.67-8.3-5.01-11.14-3.37-2.83-7.69-4.25-12.96-4.25-6.13,0-11.2,1.96-15.15,5.88-3.97,3.91-5.96,8.87-5.96,14.9h0ZM308.57,16.05l-20.59,113.15h-28.34l1.76-9.56c-4.2,4.14-8.84,7.28-13.88,9.39-5.04,2.13-10.45,3.16-16.24,3.16-9.8,0-17.8-3.19-24.08-9.59-6.28-6.4-9.42-14.67-9.42-24.79,0-12.73,4.23-23.3,12.7-31.67,8.47-8.38,19.09-12.56,31.85-12.56,5.73,0,10.94,1.05,15.57,3.12,4.64,2.07,9.02,5.31,13.11,9.75v-2.12c0-1.47,.09-2.99,.26-4.55,.17-1.6,.4-3.22,.69-4.86l7.09-38.85h29.52Z"/>
  <path class="cls-1" d="M343.33,94.94c0,4.74,1.67,8.52,4.98,11.39,3.31,2.86,7.71,4.31,13.16,4.31,5.96,0,10.94-2.01,14.89-6.03,3.98-4.01,5.96-9.02,5.96-15.05,0-4.59-1.67-8.3-4.98-11.13-3.31-2.85-7.66-4.27-12.99-4.27-6.07,0-11.12,1.96-15.06,5.91-3.97,3.94-5.96,8.89-5.96,14.87h0Zm33.18,24.39c-4.12,4.14-8.7,7.28-13.71,9.39-5.04,2.12-10.45,3.17-16.27,3.17-9.79,0-17.8-3.19-24.07-9.58-6.28-6.38-9.42-14.65-9.42-24.82,0-12.75,4.27-23.32,12.76-31.74,8.5-8.43,19.09-12.63,31.79-12.63,5.9,0,11.2,1.05,15.87,3.16,4.66,2.12,8.9,5.41,12.67,9.84l1.93-10.66h28.5l-13.5,73.73h-27.99l1.44-9.87Z"/>
  <path class="cls-1" d="M446.42,125.49l-24.25-70.01h31.16l7.43,31.82c.09,.45,.26,1.07,.49,1.92,1.06,4.25,1.67,7.92,1.78,10.94,.6-1.89,1.41-3.93,2.39-6.1,.98-2.18,2.19-4.52,3.6-7.03l17.63-31.54h32.31l-66.15,106.3h-31.47l25.08-36.28Z"/>
  <path class="cls-1" d="M126.65,58.54c-1.28-7.87-4.87-13.94-10.87-18.2-6.01-4.22-13.58-6.04-22.71-5.43-8.27,.56-15.44,3.31-21.53,8.3-6.16,4.94-10.5,11.58-13.14,19.91l68.26-4.58h0ZM57.06,93.07l.29,3.31c.83,9.28,4.21,16.16,10.12,20.59,5.86,4.47,14.06,6.36,24.56,5.65,7.36-.49,14.15-2.29,20.47-5.39,6.27-3.06,12.85-7.82,19.8-14.2l34.65,25.94c-8.88,8.54-19.42,15.22-31.63,20.01-12.14,4.78-26,7.7-41.46,8.74-27.57,1.85-49.48-3.04-65.86-14.71C11.63,131.33,2.45,114.07,.4,91.2-1.84,66.21,5.41,45.31,22.1,28.49,38.85,11.62,61.55,2.25,90.31,.32c26.08-1.76,47.7,3.75,64.8,16.46,17.16,12.71,26.73,30.44,28.77,53.21,.18,2.03,.17,5.71-.04,11.09-.03,1.64-.1,2.79-.15,3.49l-126.64,8.5Z"/>
</svg>